<svg width="138" height="32" viewBox="0 0 138 32" fill="white" xmlns="http://www.w3.org/2000/svg" class="max-h-full w-auto scale-75 fill-current lg:scale-95"><path d="M74.9556 19.3733L72.6056 17.9779C69.9618 16.5092 68.5666 15.5545 68.5666 13.792C68.5666 12.4702 69.7416 11.442 71.2837 11.442C74.368 11.442 75.8368 13.8655 76.204 16.8764H76.718L77.8931 10.3405C76.8649 9.8999 75.2493 9.60615 73.6337 9.60615C67.9791 9.60615 65.1885 12.6171 65.1885 16.0686C65.1885 19.006 67.6119 20.5482 69.5213 21.5763L72.7525 23.4122C74.8821 24.5138 75.9102 25.6154 75.9102 27.231C75.9102 28.4794 74.9556 29.9481 72.7525 29.9481C69.7416 29.9481 67.3181 27.231 66.3635 23.3388H65.9229L64.6744 25.0279C63.0588 26.9372 61.2229 28.4794 58.2855 28.4794C53.7324 28.4794 51.6027 25.1013 51.6027 20.5482H62.7651V17.5373C62.7651 13.3515 60.7089 9.67958 55.7152 9.67958C49.8402 9.67958 46.9762 14.967 46.9762 20.9154C46.9762 23.5591 47.6372 25.7622 48.7387 27.5247C48.0043 28.3325 46.9762 29.2138 45.5809 29.2138C44.1122 29.2138 43.3778 27.8184 43.3778 25.6888V1.23438C43.231 1.30781 43.0841 1.38124 42.9372 1.45468C41.2481 2.26248 39.706 2.84998 38.017 3.2906C38.0904 3.43747 38.1638 3.58434 38.1638 3.73122C38.8982 5.64058 38.9717 7.91711 38.9717 10.3405V24.8076C38.9717 25.9091 39.1185 26.8638 39.3388 27.6716C38.7514 28.4794 37.9436 29.3606 36.8419 29.3606C35.4467 29.3606 34.3452 28.2591 34.3452 26.0559V17.6108C34.3452 13.9389 33.6108 9.60615 27.5156 9.60615C22.1547 9.60615 19.9516 12.9842 19.9516 16.2889L23.9906 17.8311C23.9906 17.8311 23.4765 11.0749 27.1483 11.0749C30.0858 11.0749 30.0124 14.3796 30.0124 17.2436V18.2717C30.0124 18.9326 28.4702 19.8139 25.5327 20.9154C22.9624 21.9435 19.0703 23.2654 19.0703 27.0106C19.0703 29.7278 21.0531 31.7106 23.9906 31.7106C26.3405 31.7106 28.6171 30.3887 30.0858 28.3325C30.1593 29.3606 31.7749 31.7106 34.2717 31.7106C36.8419 31.7106 38.6044 30.1684 39.706 28.6997C40.6607 30.7559 42.3498 31.7106 44.3325 31.7106C46.4621 31.7106 48.1512 29.8747 49.2528 28.2591C50.9418 30.3887 53.3652 31.7106 56.1558 31.7106C59.6074 31.7106 62.0307 29.434 63.426 27.231C64.3073 28.4059 67.0978 31.7106 71.504 31.7106C75.1758 31.7106 78.7008 29.2872 78.7008 25.0279C78.7742 21.87 76.6446 20.3279 74.9556 19.3733ZM30.0858 27.3044C29.1312 28.0388 27.9561 28.6997 26.7078 28.6997C24.578 28.6997 23.5499 27.1576 23.5499 25.3216C23.5499 22.8982 24.7984 21.7966 28.6171 21.7966C29.9389 21.7966 30.0858 21.9435 30.0858 22.7513V27.3044ZM51.6027 18.7858C51.6027 13.792 52.7778 11.1483 55.1277 11.1483C57.0371 11.1483 58.3589 13.0577 58.3589 17.3904C58.3589 19.0795 58.1386 19.2998 56.8167 19.2998H51.6761L51.6027 18.7858Z" fill="currentFill"></path><path d="M86.3406 24.8075V1.23438C84.5047 2.11562 82.8157 2.77654 80.9798 3.2906C81.861 5.19995 81.9343 7.69679 81.9343 10.2671V24.7341C81.9343 27.0107 81.7875 28.7731 80.9062 31.123H87.8828C87.9562 31.123 86.3406 29.0669 86.3406 24.8075Z" fill="currentFill"></path><path d="M97.9419 9.60938C92.728 9.60938 89.2031 14.0156 89.2031 20.7717C89.2031 27.0873 92.4343 31.7138 97.5753 31.7138C102.788 31.7138 106.314 27.381 106.314 20.6982C106.314 14.3827 103.082 9.60938 97.9419 9.60938ZM98.0886 30.0247C95.2249 30.0247 93.9765 24.8841 93.9765 19.3764C93.9765 14.1624 95.078 11.1515 97.3543 11.1515C100.292 11.1515 101.466 16.5124 101.466 22.0201C101.466 27.381 100.292 30.0247 98.0886 30.0247Z" fill="currentFill"></path><path d="M125.184 11.1514H131.206V9.97644H125.184V4.10152C123.715 5.0562 122.173 5.79056 120.557 6.37805C120.705 7.92022 120.705 8.8749 120.778 9.97644H113.507C112.92 8.21397 112.553 6.74523 112.553 5.57025C112.553 4.10152 113.066 3.29372 114.242 3.29372C115.417 3.29372 116.592 4.76245 117.62 8.43428H118.134L119.383 1.82498C119.383 1.82498 118.354 1.16406 116.886 1.16406C111.525 1.16406 109.395 5.2765 109.322 9.90302H106.898V11.0779H109.322V11.2982V24.2231C109.322 26.4997 109.248 28.6293 108.293 31.1261H114.683C113.727 28.7027 113.654 26.4997 113.654 24.2231V11.3717V11.1514H120.778V11.3717V25.9121C120.778 29.7308 122.32 31.7137 124.89 31.7137C127.901 31.7137 130.03 29.2168 130.03 26.8668C129.003 27.6012 128.195 28.1153 127.313 28.1153C125.184 28.1153 125.184 25.7653 125.184 24.8106V11.3717V11.1514Z" fill="currentFill"></path><path d="M5.55931 8.87014C5.55931 6.96079 7.39523 5.41862 9.7452 5.41862C12.7562 5.41862 14.5921 6.81392 15.6202 14.0841H16.2811L17.2358 4.1702C10.4062 1.82023 2.03435 4.31708 1.88749 11.4404C1.88749 19.1512 14.1514 19.1512 14.1514 26.2011C14.1514 28.2573 12.3155 29.6527 10.2593 29.6527C4.82495 29.6527 3.57652 25.0996 3.28278 20.3262H2.62185L0.859375 29.2855C0.859375 29.2855 4.89838 31.6354 9.23114 31.6354C14.4452 31.562 17.8968 27.7433 18.0436 23.7043C18.0436 15.9934 5.55931 14.3779 5.55931 8.87014Z" fill="currentFill"></path><path d="M132.312 28.9203C132.312 27.4515 133.487 26.2031 135.029 26.2031C136.645 26.2031 137.821 27.4515 137.821 28.9203C137.821 30.389 136.645 31.6374 135.104 31.6374C133.414 31.7109 132.312 30.389 132.312 28.9203Z" fill="currentFill" opacity="0.8"></path></svg>