<svg width="170" height="30" viewBox="0 0 170 30" fill="none" xmlns="http://www.w3.org/2000/svg" class="max-h-full w-auto scale-75 fill-current lg:scale-95"><g opacity="0.9" clip-path="url(#clip0_802_6006)"><path fill-rule="evenodd" clip-rule="evenodd" d="M2.21221 10.2568C-0.393654 12.8617 -0.393654 17.0845 2.21221 19.6892L9.76061 27.235C12.3665 29.8396 16.5909 29.8396 19.1966 27.235L26.7452 19.6892C29.3508 17.0844 29.3508 12.8615 26.7452 10.2568L19.1966 2.71129C16.5907 0.106653 12.3662 0.106653 9.76061 2.71129L2.21221 10.2568ZM17.7811 18.2745C19.6051 16.451 19.6051 13.495 17.7811 11.6718C15.9572 9.84842 13 9.84842 11.1761 11.6718C9.35202 13.4952 9.35202 16.451 11.1761 18.2745C13.0002 20.0977 15.957 20.0977 17.7811 18.2745Z" fill="white"></path><path d="M35.2969 25.8128V3.78906H39.6624V13.0699L39.1386 12.3716C39.5073 11.4213 40.0991 10.723 40.914 10.2769C41.7483 9.81141 42.7185 9.57866 43.8244 9.57866C45.0274 9.57866 46.0752 9.83082 46.9678 10.3351C47.8797 10.8394 48.5879 11.5473 49.0923 12.4589C49.5969 13.3511 49.849 14.3985 49.849 15.601V25.8128H45.4835V16.532C45.4835 15.9114 45.3573 15.378 45.105 14.9319C44.8722 14.4858 44.5327 14.1367 44.0864 13.8845C43.6596 13.6324 43.155 13.5063 42.573 13.5063C42.0103 13.5063 41.5058 13.6324 41.0595 13.8845C40.6132 14.1367 40.264 14.4858 40.0117 14.9319C39.7789 15.378 39.6624 15.9114 39.6624 16.532V25.8128H35.2969Z" fill="white"></path><path d="M57.059 26.1614C55.9142 26.1614 54.9246 25.9772 54.0903 25.6086C53.256 25.2402 52.6157 24.7165 52.1695 24.0376C51.7232 23.3394 51.5 22.515 51.5 21.5647C51.5 20.6724 51.7038 19.8869 52.1113 19.2081C52.5187 18.5099 53.1395 17.928 53.9739 17.4625C54.8276 16.997 55.8851 16.6673 57.1464 16.4733L62.0068 15.6878V18.888L57.9322 19.6153C57.3112 19.7318 56.8359 19.9354 56.506 20.2263C56.1762 20.4979 56.0112 20.8956 56.0112 21.4191C56.0112 21.9041 56.1956 22.2823 56.5642 22.5538C56.9329 22.8254 57.3888 22.9612 57.9322 22.9612C58.6501 22.9612 59.2806 22.806 59.8239 22.4956C60.3672 22.1854 60.7843 21.7683 61.0754 21.2446C61.3859 20.7015 61.541 20.1101 61.541 19.4699V15.3386C61.541 14.7374 61.2986 14.2331 60.8134 13.8258C60.3478 13.4185 59.7076 13.2148 58.8927 13.2148C58.1165 13.2148 57.4276 13.4282 56.8262 13.8549C56.2441 14.2816 55.8172 14.8441 55.5456 15.5423L52.0531 13.884C52.3634 12.9918 52.8583 12.2256 53.5374 11.5856C54.2164 10.9455 55.0314 10.4509 55.9821 10.1018C56.9329 9.7527 57.971 9.57812 59.0963 9.57812C60.4352 9.57812 61.6187 9.82058 62.6471 10.3055C63.6754 10.7904 64.471 11.4692 65.0336 12.342C65.6158 13.1954 65.9067 14.1943 65.9067 15.3386V25.8123H61.8321V23.252L62.8217 23.0775C62.3561 23.7757 61.8418 24.3576 61.2792 24.8231C60.7164 25.2693 60.0859 25.5989 59.3874 25.8123C58.6889 26.0451 57.9128 26.1614 57.059 26.1614Z" fill="white"></path><path d="M74.7513 26.1614C73.005 26.1614 71.4819 25.7542 70.1819 24.9395C68.9013 24.1055 68.0281 22.9902 67.5625 21.5938L70.764 20.0809C71.1715 20.9343 71.7244 21.6035 72.4229 22.0884C73.1214 22.5732 73.8975 22.8157 74.7513 22.8157C75.3723 22.8157 75.8476 22.6897 76.1775 22.4375C76.5072 22.1854 76.6722 21.8362 76.6722 21.3902C76.6722 21.1574 76.614 20.9634 76.4975 20.8083C76.3811 20.6337 76.2066 20.4785 75.9737 20.3428C75.7408 20.2069 75.4499 20.0906 75.1006 19.9936L72.3938 19.2372C71.0939 18.8686 70.0946 18.2771 69.3961 17.4625C68.6976 16.6285 68.3483 15.649 68.3483 14.524C68.3483 13.5348 68.6006 12.6717 69.105 11.9347C69.6096 11.1977 70.3178 10.6255 71.2297 10.2182C72.1417 9.79148 73.1893 9.57812 74.373 9.57812C75.9252 9.57812 77.2833 9.94665 78.4476 10.6837C79.6312 11.4013 80.4655 12.4196 80.9506 13.7385L77.72 15.2513C77.4871 14.5919 77.0603 14.0682 76.4393 13.6803C75.8379 13.273 75.1491 13.0694 74.373 13.0694C73.8103 13.0694 73.364 13.1857 73.0341 13.4185C72.7237 13.6512 72.5685 13.9713 72.5685 14.3786C72.5685 14.5919 72.6267 14.7859 72.7431 14.9604C72.8596 15.135 73.0438 15.2901 73.2961 15.426C73.5678 15.5617 73.8975 15.6878 74.2856 15.8041L76.8177 16.5605C78.1371 16.9485 79.1461 17.5401 79.8445 18.3352C80.5432 19.1111 80.8923 20.0712 80.8923 21.2155C80.8923 22.2047 80.6304 23.0678 80.1065 23.8048C79.6021 24.5418 78.8939 25.1238 77.982 25.5504C77.07 25.9578 75.9931 26.1614 74.7513 26.1614Z" fill="white"></path><path d="M82.9219 25.8128V3.78906H87.2876V13.0699L86.7636 12.3716C87.1323 11.4213 87.7241 10.723 88.539 10.2769C89.3733 9.81141 90.3435 9.57866 91.4495 9.57866C92.6524 9.57866 93.7002 9.83082 94.5928 10.3351C95.5047 10.8394 96.2129 11.5473 96.7175 12.4589C97.2219 13.3511 97.4742 14.3985 97.4742 15.601V25.8128H93.1085V16.532C93.1085 15.9114 92.9823 15.378 92.73 14.9319C92.4973 14.4858 92.1577 14.1367 91.7115 13.8845C91.2846 13.6324 90.7801 13.5063 90.198 13.5063C89.6353 13.5063 89.1309 13.6324 88.6845 13.8845C88.2383 14.1367 87.889 14.4858 87.6368 14.9319C87.404 15.378 87.2876 15.9114 87.2876 16.532V25.8128H82.9219Z" fill="white"></path><path d="M99.7656 25.8123V9.92725H103.84V13.0694L103.607 12.3711C103.976 11.4207 104.568 10.7225 105.383 10.2764C106.217 9.81087 107.187 9.57812 108.293 9.57812C109.496 9.57812 110.544 9.83028 111.437 10.3346C112.348 10.8389 113.057 11.5468 113.561 12.4584C114.066 13.3506 114.318 14.398 114.318 15.6005V25.8123H109.952V16.5314C109.952 15.9108 109.826 15.3775 109.574 14.9314C109.341 14.4852 109.001 14.1361 108.555 13.884C108.128 13.6318 107.624 13.5058 107.042 13.5058C106.479 13.5058 105.975 13.6318 105.528 13.884C105.082 14.1361 104.733 14.4852 104.481 14.9314C104.248 15.3775 104.131 15.9108 104.131 16.5314V25.8123H99.7656Z" fill="white"></path><path d="M124.496 26.1614C122.925 26.1614 121.489 25.8027 120.189 25.0849C118.908 24.3673 117.88 23.3879 117.104 22.1466C116.347 20.8859 115.969 19.4602 115.969 17.8698C115.969 16.2599 116.347 14.8344 117.104 13.593C117.88 12.3517 118.908 11.3722 120.189 10.6546C121.489 9.93696 122.925 9.57812 124.496 9.57812C126.068 9.57812 127.494 9.93696 128.775 10.6546C130.055 11.3722 131.074 12.3517 131.831 13.593C132.607 14.8344 132.995 16.2599 132.995 17.8698C132.995 19.4602 132.607 20.8859 131.831 22.1466C131.074 23.3879 130.055 24.3673 128.775 25.0849C127.494 25.8027 126.068 26.1614 124.496 26.1614ZM124.496 22.2338C125.292 22.2338 125.981 22.0496 126.563 21.681C127.164 21.3125 127.63 20.7986 127.96 20.139C128.309 19.4796 128.484 18.7232 128.484 17.8698C128.484 17.0164 128.309 16.2696 127.96 15.6296C127.63 14.9701 127.164 14.4562 126.563 14.0876C125.981 13.6997 125.292 13.5058 124.496 13.5058C123.701 13.5058 123.002 13.6997 122.401 14.0876C121.799 14.4562 121.324 14.9701 120.975 15.6296C120.645 16.2696 120.48 17.0164 120.48 17.8698C120.48 18.7232 120.645 19.4796 120.975 20.139C121.324 20.7986 121.799 21.3125 122.401 21.681C123.002 22.0496 123.701 22.2338 124.496 22.2338Z" fill="white"></path><path d="M142.464 26.162C140.912 26.162 139.524 25.7935 138.302 25.0564C137.08 24.3194 136.109 23.3205 135.392 22.0598C134.693 20.7991 134.344 19.4025 134.344 17.8703C134.344 16.3186 134.703 14.9222 135.421 13.6809C136.139 12.4201 137.109 11.4213 138.331 10.6842C139.553 9.94719 140.921 9.57866 142.434 9.57866C143.599 9.57866 144.627 9.80172 145.52 10.2478C146.432 10.6745 147.15 11.2855 147.674 12.0807L147.005 12.9535V3.78906H151.37V25.8128H147.296V22.9035L147.702 23.8054C147.159 24.5812 146.423 25.1728 145.49 25.5801C144.559 25.968 143.551 26.162 142.464 26.162ZM142.987 22.2343C143.783 22.2343 144.482 22.0501 145.084 21.6815C145.684 21.3131 146.151 20.7991 146.48 20.1396C146.829 19.4802 147.005 18.7237 147.005 17.8703C147.005 17.017 146.829 16.2604 146.48 15.601C146.151 14.9416 145.684 14.4276 145.084 14.0591C144.482 13.6906 143.783 13.5063 142.987 13.5063C142.193 13.5063 141.474 13.7003 140.834 14.0882C140.213 14.4567 139.728 14.9706 139.379 15.6301C139.03 16.2701 138.855 17.017 138.855 17.8703C138.855 18.7237 139.03 19.4802 139.379 20.1396C139.728 20.7991 140.213 21.3131 140.834 21.6815C141.474 22.0501 142.193 22.2343 142.987 22.2343Z" fill="white"></path><path d="M161.639 26.1614C159.95 26.1614 158.486 25.793 157.245 25.0558C156.003 24.2994 155.042 23.2908 154.363 22.0301C153.684 20.7694 153.344 19.3729 153.344 17.8406C153.344 16.2503 153.694 14.8344 154.391 13.593C155.11 12.3517 156.07 11.3722 157.273 10.6546C158.477 9.93696 159.835 9.57812 161.348 9.57812C162.61 9.57812 163.725 9.78179 164.695 10.1891C165.665 10.577 166.48 11.1298 167.14 11.8474C167.818 12.5651 168.333 13.3991 168.682 14.3495C169.032 15.2804 169.206 16.2987 169.206 17.4043C169.206 17.7146 169.187 18.025 169.149 18.3352C169.129 18.6262 169.08 18.8783 169.002 19.0918H157.098V15.8914H166.529L164.462 17.4043C164.656 16.5702 164.647 15.8332 164.433 15.1932C164.22 14.5337 163.841 14.0197 163.299 13.6512C162.774 13.2633 162.124 13.0694 161.348 13.0694C160.592 13.0694 159.942 13.2536 159.398 13.6221C158.855 13.9907 158.447 14.5337 158.176 15.2513C157.904 15.9691 157.797 16.8418 157.855 17.8698C157.778 18.762 157.885 19.5475 158.176 20.2263C158.467 20.9051 158.913 21.4385 159.514 21.8265C160.116 22.195 160.843 22.3793 161.697 22.3793C162.473 22.3793 163.133 22.2241 163.677 21.9138C164.239 21.6035 164.675 21.1767 164.986 20.6337L168.479 22.292C168.168 23.0678 167.673 23.7466 166.994 24.3285C166.335 24.9104 165.549 25.3662 164.637 25.696C163.725 26.0063 162.726 26.1614 161.639 26.1614Z" fill="white"></path></g><defs><clipPath id="clip0_802_6006"><rect width="169.031" height="28.5469" fill="white" transform="translate(0.171875 0.757812)"></rect></clipPath></defs></svg>