<svg width="123" height="38" viewBox="0 0 123 38" fill="none" xmlns="http://www.w3.org/2000/svg" class="max-h-full w-auto scale-75 fill-current lg:scale-95"><g clip-path="url(#clip0_800_5923)"><path d="M45.0625 29.466H48.8936V20.0083H59.5636V16.3586H48.8936V10.8998H59.9119V7.25H45.0625V29.466Z" fill="white"></path><path d="M66.1725 29.873C68.9903 29.873 70.3834 28.6035 71.3017 26.8579L71.27 29.4603H74.9744V19.8757C74.9744 15.4008 72.6314 13.2109 68.262 13.2109C65.0958 13.2109 62.7528 14.6391 61.4548 16.6703L64.241 18.7332C64.9059 17.8763 66.4257 16.702 68.0404 16.702C69.5286 16.702 71.1433 16.9877 71.27 19.717H68.8636C64.1778 19.717 60.7266 21.1452 60.7266 25.2076C60.7266 28.0956 63.2596 29.873 66.1725 29.873ZM66.8689 26.5723C65.6026 26.5723 64.5576 25.9376 64.5576 24.922C64.5576 23.2399 66.3624 22.6686 69.307 22.6686L71.365 22.7003C71.0484 25.2393 69.3387 26.5723 66.8689 26.5723Z" fill="white"></path><path d="M85.4957 29.873C89.2317 29.873 92.2395 27.6196 93.1261 24.2554L89.7066 23.2081C89.01 25.398 87.3953 26.3501 85.4957 26.3501C83.0893 26.3501 81.2528 24.4458 81.2528 21.5261C81.2528 18.6062 83.0893 16.7338 85.4957 16.7338C87.2054 16.7338 88.8518 17.432 89.6433 19.4949L93.0312 18.4793C92.0496 15.2738 89.105 13.2109 85.4957 13.2109C80.6829 13.2109 77.4219 16.9559 77.4219 21.5261C77.4219 26.0961 80.6829 29.873 85.4957 29.873Z" fill="white"></path><path d="M103.008 29.847C106.396 29.847 109.214 28.0381 110.196 25.8799L107.314 23.9123C106.649 25.1499 105.288 26.3878 103.072 26.3878C100.412 26.3878 98.9239 24.7374 98.9239 23.0236H110.069V21.2463C110.069 15.724 106.903 13.3438 103.008 13.3438C98.2274 13.3438 95.1562 16.93 95.1562 21.5002C95.1562 26.102 97.6258 29.847 103.008 29.847ZM98.9872 20.2307C98.9872 18.6438 100.159 16.8348 102.882 16.8348C105.446 16.8348 106.396 18.9612 106.396 20.2307H98.9872Z" fill="white"></path><path d="M120.066 29.5568C120.51 29.5568 121.491 29.5568 121.998 29.5251V26.2562C118.8 26.4149 117.882 25.558 117.818 23.2729V17.1794H122.378V13.72H117.818V8.54688L114.114 10.3242V13.72H111.359V17.1794H113.987V24.0346C113.987 27.7478 115.254 29.5568 120.066 29.5568Z" fill="white"></path></g><g clip-path="url(#clip1_800_5923)"><mask id="mask0_800_5923" style="mask-type:luminance" maskUnits="userSpaceOnUse" x="-1" y="0" width="33" height="38"><path d="M31.5484 0H-0.0078125V37.125H31.5484V0Z" fill="white"></path></mask><g mask="url(#mask0_800_5923)"><path fill-rule="evenodd" clip-rule="evenodd" d="M12.3672 0C12.3672 6.83453 17.9077 12.375 24.7422 12.375C28.1595 12.375 30.9297 9.60479 30.9297 6.1875C30.9297 2.77024 28.1595 0 24.7422 0H12.3672ZM12.3672 12.375V0C5.53266 0 -0.0078125 5.54047 -0.0078125 12.375V24.75V37.125C6.82671 37.125 12.3672 31.5845 12.3672 24.75V18.5625C12.3672 21.9798 15.1374 24.75 18.5547 24.75C21.972 24.75 24.7422 21.9798 24.7422 18.5625C24.7422 15.1452 21.972 12.375 18.5547 12.375C15.1374 12.375 12.3672 15.1452 12.3672 18.5625V12.375Z" fill="white"></path></g></g><defs><clipPath id="clip0_800_5923"><rect width="77.55" height="23.1" fill="white" transform="translate(45.0625 7.01562)"></rect></clipPath><clipPath id="clip1_800_5923"><rect width="31.5563" height="37.125" fill="white"></rect></clipPath></defs></svg>