<svg width="139" height="32" viewBox="0 0 139 32" fill="white" xmlns="http://www.w3.org/2000/svg" class="h-8 w-auto"><path fill-rule="evenodd" clip-rule="evenodd" d="M16.318 0c3.756 0 7.204 1.313 9.912 3.504H6.406A15.703 15.703 0 0 1 16.318 0Zm50.008 8.647V4.835h3.813v3.812h-3.813Zm0 17.633V10.554h3.813V26.28h-3.813ZM46.953 5.312h16.68v3.575h-6.315V26.28h-4.05V8.887h-6.315V5.312Zm30.406 5.839v-.596h-3.812v21.446h3.812v-6.404c0-.596-.149-1.072-.417-1.609-.149-.297-.268-.595.06-.714.23-.077.351.133.418.25.011.019.02.035.029.047.953 1.728 2.591 2.95 4.974 2.95 4.08 0 6.85-3.575 6.85-8.102 0-4.528-2.77-8.102-6.85-8.102-2.442 0-4.021 1.25-4.974 2.919l-.007.013c-.065.132-.242.488-.53.344-.258-.129-.135-.415-.02-.683.017-.04.035-.081.05-.12.268-.537.417-1.013.417-1.639Zm8.102 7.268c0 2.502-1.251 4.646-3.932 4.646-2.502 0-4.17-2.144-4.17-4.646s1.668-4.647 4.17-4.647c2.681 0 3.932 2.145 3.932 4.647Zm15.804-4.528h-4.29v7.178c0 1.728.03 1.876 1.639 1.876h2.651v3.336H97.81c-3.158 0-4.647-1.042-4.647-4.825v-7.565h-2.86v-3.336h2.86v-4.29h3.813v4.29h4.289v3.336Zm17.699-3.336h-3.813v.596c0 .626.149 1.102.416 1.638.15.298.328.655.03.804-.288.145-.465-.214-.53-.345l-.006-.012c-.863-1.728-2.531-2.919-4.974-2.919-4.08 0-6.85 3.574-6.85 8.102 0 4.527 2.77 8.101 6.85 8.101 2.383 0 3.872-1.31 4.974-2.948l.01-.016.007-.013.011-.019c.067-.117.188-.327.419-.25.328.119.209.417.059.714-.267.537-.416 1.013-.416 1.609v.685h3.813V10.555Zm-3.813 7.864c0 2.502-1.668 4.646-4.17 4.646-2.681 0-3.932-2.144-3.932-4.646s1.251-4.647 3.932-4.647c2.502 0 4.17 2.145 4.17 4.647Zm11.037-7.864v.596c0 .626-.149 1.102-.418 1.638l-.028.068-.023.055c-.114.267-.237.552.022.681.288.144.464-.212.529-.344l.007-.013c.953-1.668 2.531-2.919 4.973-2.919 4.082 0 6.852 3.574 6.852 8.102 0 4.527-2.77 8.101-6.852 8.101-2.382 0-4.02-1.221-4.973-2.948l-.029-.048c-.067-.117-.187-.327-.418-.25-.328.119-.208.417-.06.714.269.537.418 1.013.418 1.609V32h-3.813V10.555h3.813Zm4.17 12.51c2.68 0 3.931-2.144 3.931-4.646s-1.251-4.647-3.931-4.647c-2.503 0-4.17 2.145-4.17 4.647 0 2.502 1.667 4.646 4.17 4.646ZM1.447 10.513A15.713 15.713 0 0 1 3.205 7.01H29.43a15.712 15.712 0 0 1 1.758 3.504H1.447Zm-.898 5.255c0 .592.033 1.176.096 1.752h31.346a15.965 15.965 0 0 0 0-3.504H.645a15.94 15.94 0 0 0-.096 1.752Zm2.656 8.76a15.712 15.712 0 0 1-1.758-3.503h29.742a15.711 15.711 0 0 1-1.758 3.504H3.205Zm13.113 7.01c3.756 0 7.204-1.313 9.912-3.505H6.406a15.702 15.702 0 0 0 9.912 3.505Z" fill="currentFill"></path></svg>