<svg width="157" height="90" viewBox="0 0 157 90" fill="none" xmlns="http://www.w3.org/2000/svg" class="h-auto w-full"><path d="M1 74L14 70L27 65L38 60L50 52L62 50L75 51L89 45L105 44L115 28L132.5 25.5L144 13.5L156 1" class="stroke-marketing-divider-product-text-editor" stroke-linecap="round" stroke-linejoin="round"></path><path d="M1 89L14 81L27 84L38 75L50 66L62 69L75 70L89 64L105 55L115 54L132.5 44.5L145.5 28L156 25" class="stroke-marketing-divider-product-comments" stroke-linecap="round" stroke-linejoin="round"></path><path d="M27 89L38 75L49 69L62 66L75 64L89 60L105 50L115 46L132.5 48.5L145.5 39L156 32" class="stroke-marketing-divider-product-notifications" stroke-linecap="round" stroke-linejoin="round"></path></svg>