<svg width="118" height="51" viewBox="0 0 118 51" fill="none" xmlns="http://www.w3.org/2000/svg" class="max-h-full w-auto scale-75 fill-current lg:scale-95 translate-y-2"><g clip-path="url(#clip0_85_1395)"><mask id="mask0_85_1395" style="mask-type:luminance" maskUnits="userSpaceOnUse" x="-1" y="0" width="119" height="51"><path d="M117.894 0H-0.0761719V50.625H117.894V0Z" fill="white"></path></mask><g mask="url(#mask0_85_1395)"><path d="M16.9518 2.62394C18.0316 2.62394 47.2548 2.56988 49.6332 2.56988C52.0114 2.56988 51.8428 1.61157 51.8428 1.14865C51.8428 0.685735 51.3456 0 50.2276 0C49.1097 0 4.19154 0.0147808 2.43331 0.0147808C0.675073 0.0147808 -0.0761719 0.347334 -0.0761719 1.31163C-0.0761719 2.31657 0.393883 2.63743 2.79233 2.63743C5.41417 2.63743 9.81949 2.61375 10.6548 2.61375C11.4902 2.61375 12.3168 2.6485 12.3168 3.25799C12.3168 3.86748 12.0807 4.32783 11.2569 5.89877C10.4329 7.4697 0.780754 24.7327 0.780754 27.3638C0.780754 28.3901 1.47991 28.7195 2.17419 28.7195C2.78039 28.7195 3.25739 28.1853 3.94451 26.5914C6.30036 21.1265 13.818 7.03452 14.6828 5.3854C15.5475 3.73627 15.8721 2.62394 16.9518 2.62394Z" fill="white"></path><path d="M116.659 17.0783C115.768 17.2931 113.086 20.3232 108.531 20.3232C108.134 20.3237 107.738 20.3016 107.344 20.2573C107.893 19.0135 108.186 17.6716 108.206 16.3117C108.206 10.8328 104.608 10.5745 103.362 10.5745C102.117 10.5745 99.2051 11.6707 99.2051 15.9807C99.2051 18.6193 100.966 20.7509 103.609 21.8913C101.943 24.1663 99.4678 26.0091 96.8724 26.0091C94.2237 26.0091 93.1722 23.5067 93.1722 21.8007C93.1722 16.331 97.5264 14.8098 97.6803 13.6265C97.8159 12.5846 97.1551 12.1837 96.3856 12.1837C95.1133 12.1837 90.9757 15.7814 90.4251 21.0405C88.5258 22.132 84.5661 24.4149 80.3158 26.9123C82.146 23.3075 83.6801 20.2951 84.2392 19.2511C85.7645 16.4024 87.7292 13.1442 87.8414 12.1575C87.8755 11.9901 87.8705 11.8171 87.8268 11.6519C87.783 11.4868 87.7017 11.3341 87.5892 11.2058C87.4767 11.0774 87.3359 10.977 87.1782 10.9122C87.0204 10.8475 86.8497 10.8203 86.6797 10.8328C85.3691 10.8328 84.8665 12.7039 84.3665 12.7039C83.8664 12.7039 81.8664 10.5309 78.6456 10.5309C75.6286 10.5309 70.6499 12.8819 67.7104 19.8758C65.3745 21.9305 60.4121 26.0177 57.8983 26.0177C57.2705 26.0177 56.8822 25.7787 56.8822 24.8441C56.8822 23.1556 61.5281 17.2805 61.5281 13.9096C61.5281 11.7125 59.9648 10.5308 58.0818 10.5308C54.9851 10.5308 50.102 14.8296 45.2071 19.8909C46.1539 18.0285 47.3613 15.6656 47.7773 14.904C48.4981 13.5846 48.9516 12.6971 48.9516 12.0735C48.9559 11.9062 48.9254 11.7398 48.8623 11.5849C48.7992 11.4299 48.7048 11.2897 48.585 11.1732C48.4651 11.0566 48.3225 10.9661 48.1661 10.9075C48.0096 10.8489 47.8428 10.8234 47.6761 10.8325C46.8337 10.8325 46.2558 12.0973 45.5998 13.2972C45.1095 14.1942 43.8268 16.617 43.2102 17.7835C40.469 20.2482 33.7638 26.0268 31.1584 26.0268C28.4371 26.0268 29.9386 22.7345 30.4725 21.3459C32.3841 16.3737 35.5955 13.4138 35.5955 11.9459C35.5899 11.793 35.554 11.6427 35.49 11.5039C35.4261 11.3649 35.3352 11.2401 35.2227 11.1365C35.1103 11.033 34.9784 10.9529 34.8349 10.9007C34.6913 10.8486 34.5389 10.8255 34.3863 10.8328C32.9944 10.8328 32.6083 12.4282 32.0155 12.4282C31.4229 12.4282 30.1887 10.5311 27.0895 10.5311C21.0964 10.5311 14.083 17.1566 14.083 24.542C14.083 27.0395 15.3649 28.7271 18.0635 28.7271C21.5123 28.7271 25.1782 25.4513 27.2253 23.1522C26.6441 25.4296 26.53 28.7195 30.7241 28.7195C34.016 28.7195 38.6256 24.4516 41.5248 21.3701C40.3621 23.6177 38.6992 26.9121 38.6992 27.3716C38.6992 28.0779 38.7906 28.7269 39.6727 28.7269C40.5548 28.7269 41.5737 28.021 42.8674 26.0435C44.161 24.0661 54.0205 13.2177 57.7348 13.2177C61.4491 13.2177 54.0314 22.3001 54.0314 25.725C54.0314 28.2354 55.4266 28.7269 56.979 28.7269C60.0199 28.7269 63.5732 26.3999 66.7076 23.1095C66.6313 25.0176 66.909 28.7269 70.2216 28.7269C73.268 28.7269 76.2125 26.641 78.0785 24.9753C77.5212 26.1533 76.7485 27.7829 75.9248 29.5101C72.3106 31.6652 68.9259 33.7329 66.8656 35.1077C60.6087 39.2837 57.6242 41.887 57.6242 46.0597C57.6242 49.7505 60.1826 50.625 62.3879 50.625C66.0219 50.625 69.4213 48.0231 71.6756 43.8123C72.8347 41.647 75.7204 35.967 78.4581 30.5727C82.5251 27.9733 86.8749 25.3359 90.4699 23.5343C90.7831 25.115 91.9689 28.7831 96.2308 28.7831C99.7235 28.7831 103.675 26.1156 106.051 22.6113C106.773 22.7367 107.504 22.7992 108.236 22.7983C112.49 22.7983 117.894 19.9431 117.894 18.1803C117.894 17.4857 117.514 16.8723 116.659 17.0783ZM27.1486 20.2131C25.5495 21.7353 21.5568 25.4768 19.0827 25.4768C17.832 25.4768 17.1451 24.8942 17.1451 23.5714C17.1451 19.8949 21.6267 13.4397 26.9342 13.4397C28.949 13.4397 29.7908 14.5269 29.7908 15.8832C29.7907 17.0894 28.7478 18.6909 27.1486 20.2131ZM71.6746 38.2259C68.882 43.48 66.1509 47.8917 62.973 47.8917C60.8521 47.8917 60.4322 46.9031 60.4322 45.5827C60.4322 43.383 62.6248 40.9614 66.146 38.702C67.536 37.8101 70.4746 35.7992 74.037 33.4478C73.0256 35.5436 72.1299 37.3696 71.6746 38.2259ZM79.8352 20.5688C78.2272 22.099 74.0223 25.5467 71.3129 25.5467C70.0554 25.5467 69.7391 24.6983 69.7391 23.3686C69.7391 19.3774 74.3704 13.4084 78.7243 13.4084C80.4427 13.4084 82.3288 14.2715 82.3288 16.3925C82.3288 17.414 81.4429 19.0385 79.8352 20.5688ZM104.931 19.6311C102.772 18.6925 101.691 16.9804 101.691 15.6479C101.691 13.7114 102.835 13.0722 103.69 13.0722C104.545 13.0722 105.7 14.0093 105.7 16.492C105.662 17.5803 105.4 18.6491 104.931 19.6311Z" fill="white"></path></g></g><defs><clipPath id="clip0_85_1395"><rect width="118" height="51" fill="white"></rect></clipPath></defs></svg>