<svg width="125" height="28" viewBox="0 0 125 28" fill="white" xmlns="http://www.w3.org/2000/svg" class="max-h-full w-auto scale-75 fill-current lg:scale-95"><path d="M62.58 7.10938C57.75 7.10938 54.2675 10.2594 54.2675 14.9844C54.2675 19.7094 58.1875 22.8594 63.0175 22.8594C65.9356 22.8594 68.5081 21.7044 70.1006 19.7575L66.7538 17.8238C65.87 18.7906 64.5269 19.355 63.0175 19.355C60.9219 19.355 59.1413 18.2613 58.4806 16.5113H70.7394C70.8356 16.0213 70.8925 15.5138 70.8925 14.98C70.8925 10.2594 67.41 7.10938 62.58 7.10938ZM58.4413 13.4531C58.9881 11.7075 60.4844 10.6094 62.5756 10.6094C64.6713 10.6094 66.1675 11.7075 66.71 13.4531H58.4413ZM109.69 7.10938C104.86 7.10938 101.378 10.2594 101.378 14.9844C101.378 19.7094 105.298 22.8594 110.128 22.8594C113.046 22.8594 115.618 21.7044 117.211 19.7575L113.864 17.8238C112.98 18.7906 111.637 19.355 110.128 19.355C108.032 19.355 106.251 18.2613 105.591 16.5113H117.849C117.946 16.0213 118.002 15.5138 118.002 14.98C118.002 10.2594 114.52 7.10938 109.69 7.10938ZM105.556 13.4531C106.103 11.7075 107.599 10.6094 109.69 10.6094C111.786 10.6094 113.282 11.7075 113.824 13.4531H105.556ZM88.48 14.9844C88.48 17.6094 90.195 19.3594 92.855 19.3594C94.6575 19.3594 96.0094 18.5413 96.705 17.2069L100.065 19.145C98.6738 21.4637 96.0663 22.8594 92.855 22.8594C88.0206 22.8594 84.5425 19.7094 84.5425 14.9844C84.5425 10.2594 88.025 7.10938 92.855 7.10938C96.0663 7.10938 98.6694 8.505 100.065 10.8237L96.705 12.7619C96.0094 11.4275 94.6575 10.6094 92.855 10.6094C90.1994 10.6094 88.48 12.3594 88.48 14.9844ZM124.565 2.29688V22.4219H120.627V2.29688H124.565ZM17.0406 0.109375L33.2063 28.1094H0.875L17.0406 0.109375ZM57.4569 2.29688L45.3338 23.2969L33.2106 2.29688H37.7563L45.3338 15.4219L52.9113 2.29688H57.4569ZM83.23 7.54688V11.7863C82.7925 11.6594 82.3288 11.5719 81.83 11.5719C79.2881 11.5719 77.455 13.3219 77.455 15.9469V22.4219H73.5175V7.54688H77.455V11.5719C77.455 9.34938 80.0406 7.54688 83.23 7.54688Z" fill="currentColor"></path></svg>