<svg width="126" height="26" viewBox="0 0 126 26" fill="none" xmlns="http://www.w3.org/2000/svg" class="max-h-full w-auto scale-75 fill-current lg:scale-95"><g clip-path="url(#clip0_100_1380)"><path d="M117.43 14.4273L125.4 6.76699H120.263L111.98 14.8734V0H108.031V25.5518H111.98V19.6661L114.659 17.0908C116.304 16.863 117.435 17.2381 118.27 19.3128L120.786 25.5507H124.735L121.275 16.8804C120.74 15.529 120.074 14.3073 117.43 14.4273Z" fill="white"></path><path d="M97.547 22.3437C94.0179 22.3437 91.9911 19.6649 91.9911 16.1766C91.9911 12.7932 93.913 10.1852 97.4432 10.1852C100.064 10.1852 101.531 11.6304 101.846 13.4979L105.55 12.9688C104.886 8.38764 100.833 6.625 97.1284 6.625C91.2579 6.625 88.1128 11.0305 88.1128 16.1756C88.1128 21.0741 91.0135 25.9028 97.269 25.9028C101.952 25.9028 105.132 23.1541 105.935 18.572L102.126 18.537C101.635 21.181 99.8539 22.3437 97.547 22.3437Z" fill="white"></path><path d="M77.0342 6.625C70.8489 6.625 67.7039 11.0305 67.7039 16.1756C67.7039 21.0741 70.6044 25.9028 77.0342 25.9028C83.4639 25.9028 86.3646 21.0741 86.3646 16.1756C86.3656 11.0305 83.2205 6.625 77.0342 6.625ZM77.0342 22.3437C73.61 22.3437 71.5822 19.6649 71.5822 16.1766C71.5822 12.7932 73.5041 10.1852 77.0342 10.1852C80.5642 10.1852 82.4862 12.7932 82.4862 16.1766C82.4862 19.666 80.4593 22.3437 77.0342 22.3437Z" fill="white"></path><path d="M61.6596 8.42274C60.7165 7.36581 58.8638 6.62519 56.4174 6.62519C50.2321 6.62519 47.3315 11.2783 47.3315 16.2118C47.3315 21.9207 51.211 25.9042 56.1374 25.9042C59.317 25.9042 61.134 24.2473 62.1128 23.1903C62.1128 23.895 62.2523 24.7763 62.8818 25.5518H65.6072V0H61.6586L61.6596 8.42274ZM56.4877 22.3439C53.308 22.3439 51.211 19.7709 51.211 16.1768C51.211 12.8992 52.9587 10.1854 56.4877 10.1854C59.9821 10.1854 61.9398 12.8992 61.9398 16.0711C61.9386 19.3128 59.9119 22.3439 56.4877 22.3439Z" fill="white"></path><path d="M38.8836 13C38.8836 20.1796 33.1294 26 26.0312 26C18.9329 26 13.1787 20.1796 13.1787 13C13.1787 5.82028 18.9329 0 26.0312 0C33.1294 0 38.8836 5.82028 38.8836 13Z" fill="white"></path><path fill-rule="evenodd" clip-rule="evenodd" d="M13.1791 13C13.1791 8.13125 15.8252 3.88766 19.7421 1.66026C17.8829 0.603006 15.7374 0 13.4527 0C6.35446 0 0.600208 5.82028 0.600208 13C0.600208 19.2822 5.00567 24.5237 10.8625 25.7358C11.6991 25.909 12.5654 26 13.4527 26C14.006 26 14.551 25.9646 15.086 25.896C16.7597 25.6812 18.3331 25.141 19.7421 24.3396C23.6588 22.1122 26.305 17.8686 26.305 13H13.1791Z" fill="white" fill-opacity="0.6"></path><path fill-rule="evenodd" clip-rule="evenodd" d="M26.3052 12.9999C26.3052 17.8687 23.659 22.1123 19.7421 24.3397C21.6014 25.3969 23.7469 25.9999 26.0317 25.9999C33.1298 25.9999 38.8841 20.1797 38.8841 12.9999C38.8841 7.83955 35.9115 3.38144 31.6037 1.28194C29.918 0.460394 28.0279 0 26.0317 0C24.0783 0 22.2268 0.440754 20.5689 1.22929C20.2876 1.36308 20.0119 1.5069 19.7421 1.66026C19.742 1.66026 19.7421 1.66028 19.7421 1.66026C15.8252 3.88767 13.1792 8.13127 13.1792 12.9999H26.3052Z" fill="#DDDDDD"></path></g><defs><clipPath id="clip0_100_1380"><rect width="124.8" height="26" fill="white" transform="translate(0.600098)"></rect></clipPath></defs></svg>