<svg width="119" height="32" viewBox="0 0 119 32" fill="none" xmlns="http://www.w3.org/2000/svg" class="h-full w-auto"><g clip-path="url(#clip0_800_5936)"><path d="M28.8109 21.8386L28.7945 21.7867L39.1301 12.3247V7.76562H22.5484V12.3247H32.4526L32.469 12.3683L22.2344 21.8386V26.3976H39.2966V21.8386H28.8109Z" fill="white"></path><path d="M49.4863 7.32812C47.5737 7.32812 46.0149 7.61654 44.8101 8.19352C43.6877 8.69627 42.7423 9.52473 42.0965 10.5713C41.4787 11.6247 41.0907 12.797 40.9581 14.011L45.9894 14.7181C46.1714 13.6461 46.5354 12.8863 47.0814 12.4386C47.702 11.9703 48.4669 11.7337 49.2435 11.7698C50.2647 11.7698 51.0054 12.0427 51.4655 12.5887C51.9218 13.1347 52.1538 13.8909 52.1538 14.8874V15.3842H47.3162C44.8537 15.3842 43.0847 15.9302 42.0091 17.0222C40.9335 18.1142 40.3966 19.5556 40.3984 21.3464C40.3984 23.181 40.9353 24.546 42.0091 25.4414C43.0829 26.3368 44.4334 26.7818 46.0604 26.7763C48.0788 26.7763 49.6314 26.082 50.7177 24.6934C51.3596 23.84 51.8178 22.8632 52.0636 21.8242H52.2464L52.9398 26.3832H57.4987V14.8382C57.4987 12.4522 56.8702 10.6041 55.6126 9.29368C54.3549 7.98328 52.3127 7.32812 49.4863 7.32812ZM51.0809 21.5593C50.3573 22.1627 49.4099 22.463 48.2307 22.463C47.2588 22.463 46.5836 22.2928 46.2051 21.9525C46.0206 21.7914 45.8739 21.5918 45.7753 21.3677C45.6767 21.1436 45.6286 20.9005 45.6345 20.6558C45.6238 20.4249 45.6601 20.1943 45.7413 19.978C45.8225 19.7616 45.9468 19.564 46.1068 19.3973C46.2798 19.235 46.484 19.1095 46.7068 19.0283C46.9297 18.9471 47.1667 18.912 47.4035 18.9249H52.1619V19.2389C52.1714 19.6827 52.0788 20.1227 51.8917 20.525C51.7042 20.9274 51.4269 21.2813 51.0809 21.5593Z" fill="white"></path><path d="M85.0657 7.76562H79.6797V26.4004H85.0657V7.76562Z" fill="white"></path><path d="M116.864 7.76562C115.342 7.76562 114.143 8.30251 113.266 9.37632C112.636 10.148 112.157 11.2882 111.83 12.7969H111.672L110.967 7.76562H106.367V26.3976H111.754V16.8427C111.754 15.638 112.036 14.7143 112.6 14.0718C113.164 13.4294 114.205 13.1082 115.723 13.1082H117.767V7.76562H116.864Z" fill="white"></path><path d="M101.018 8.36931C99.7604 7.62128 98.1739 7.24819 96.2596 7.25001C93.2456 7.25001 90.8869 8.10814 89.1835 9.82437C87.4797 11.5406 86.6282 13.9066 86.6282 16.9223C86.5848 18.7455 86.9828 20.5522 87.7885 22.1884C88.5258 23.6464 89.6742 24.8565 91.0917 25.6691C92.5182 26.4935 94.2154 26.9066 96.1832 26.9084C97.8847 26.9084 99.306 26.6464 100.447 26.1222C101.52 25.6515 102.454 24.9137 103.161 23.9792C103.833 23.0619 104.333 22.0294 104.635 20.9326L99.9942 19.6331C99.7985 20.3463 99.4225 20.997 98.9022 21.5222C98.3777 22.0464 97.4995 22.3085 96.2677 22.3085C94.8025 22.3085 93.7105 21.889 92.9917 21.05C92.47 20.4439 92.1426 19.5785 91.998 18.4565H104.706C104.758 17.9323 104.785 17.4928 104.785 17.1379V15.9777C104.816 14.419 104.494 12.8736 103.843 11.4569C103.234 10.1663 102.249 9.09004 101.018 8.36931ZM96.104 11.6916C98.288 11.6916 99.526 12.7663 99.8191 14.9157H92.0935C92.2161 14.1986 92.5135 13.5226 92.9588 12.9474C93.667 12.1085 94.7151 11.6898 96.104 11.6916Z" fill="white"></path><path d="M82.4297 0.251748C82.0245 0.237967 81.6207 0.305781 81.2423 0.451163C80.8638 0.596545 80.5187 0.816523 80.2266 1.09803C79.9393 1.38223 79.7136 1.72314 79.5646 2.0991C79.4157 2.47506 79.3465 2.87787 79.3613 3.28199C79.347 3.68874 79.4162 4.09411 79.5656 4.47282C79.7145 4.85152 79.9403 5.19545 80.2281 5.4831C80.5159 5.77076 80.86 5.99598 81.2389 6.14475C81.6179 6.29351 82.0231 6.36262 82.4297 6.34773C82.834 6.363 83.2368 6.29394 83.6129 6.14499C83.989 5.99598 84.3297 5.77033 84.6137 5.48234C84.8958 5.1914 85.1153 4.8465 85.2604 4.46837C85.4055 4.09024 85.4723 3.68668 85.4575 3.28199C85.4761 2.8797 85.4108 2.47794 85.2652 2.10237C85.1196 1.7268 84.8977 1.38568 84.6132 1.10078C84.3283 0.815878 83.9875 0.593466 83.6119 0.447747C83.2368 0.302028 82.8349 0.236209 82.4326 0.254481L82.4297 0.251748Z" fill="white"></path><path d="M71.3001 7.25C69.4655 7.25 67.9912 7.82602 66.8777 8.97806C66.053 9.83162 65.4478 11.1056 65.0622 12.8H64.8903L64.1859 7.7687H59.5859V31.7486H64.972V21.8717H65.1686C65.3328 22.5302 65.5633 23.1705 65.8563 23.7826C66.3121 24.7798 67.0596 25.6155 67.9998 26.1795C68.9744 26.7115 70.0726 26.9762 71.1827 26.9467C73.4378 26.9467 75.1546 26.0685 76.3339 24.3123C77.5133 22.556 78.1032 20.1054 78.1032 16.9605C78.1032 13.9229 77.5324 11.5452 76.3917 9.82708C75.2505 8.10904 73.5533 7.25 71.3001 7.25ZM71.8461 20.7524C71.218 21.6623 70.2353 22.1173 68.8975 22.1173C68.3463 22.1428 67.7965 22.0365 67.2944 21.8072C66.7918 21.5779 66.3513 21.2322 66.0096 20.7988C65.3123 19.9234 64.9648 18.7249 64.9667 17.2034V16.8485C64.9667 15.3034 65.3142 14.1204 66.0096 13.2996C66.7045 12.4788 67.6676 12.0729 68.8975 12.082C70.2592 12.082 71.2481 12.5143 71.8652 13.3788C72.4823 14.2432 72.7906 15.449 72.7906 16.996C72.7945 18.5957 72.4814 19.8479 71.8514 20.7524H71.8461Z" fill="white"></path><path d="M20.1581 21.8359H1.52344V26.4004H20.1581V21.8359Z" fill="white"></path></g><defs><clipPath id="clip0_800_5936"><rect width="118.125" height="31.5" fill="white" transform="translate(0.6875 0.25)"></rect></clipPath></defs></svg>