<svg width="101" height="45" viewBox="0 0 101 45" fill="none" xmlns="http://www.w3.org/2000/svg" class="max-h-full w-auto scale-75 fill-current lg:scale-95"><g clip-path="url(#clip0_940_6054)"><mask id="mask0_940_6054" style="mask-type:luminance" maskUnits="userSpaceOnUse" x="0" y="0" width="101" height="45"><path d="M100.455 0.445312H0.554688V44.5453H100.455V0.445312Z" fill="white"></path></mask><g mask="url(#mask0_940_6054)"><mask id="mask1_940_6054" style="mask-type:luminance" maskUnits="userSpaceOnUse" x="0" y="0" width="101" height="45"><path d="M0.5625 0.4375H100.463V44.5375H0.5625V0.4375Z" fill="white"></path></mask><g mask="url(#mask1_940_6054)"><path d="M77.6719 34.1442C77.6719 30.6788 80.1032 28.25 83.4897 28.25C87.0132 28.25 89.087 30.6788 89.087 33.9759C89.0908 34.1941 89.0832 34.4125 89.064 34.6298H79.9068C79.9068 36.8359 81.6244 38.0079 83.7201 38.0079C85.789 38.0079 86.9065 36.9061 87.4519 36.0973L88.9064 37.3867C88.2954 38.2159 87.4977 38.89 86.5778 39.3544C85.6579 39.8189 84.6416 40.0605 83.6109 40.0602C80.1299 40.0602 77.6719 37.779 77.6719 34.1442ZM86.7926 33.0242C86.6908 31.4501 85.4993 30.3108 83.4473 30.3108C81.3953 30.3108 80.1032 31.3497 79.9021 33.0242H86.7926Z" fill="white"></path><path d="M55.606 24.3438C54.0507 24.3438 52.5303 24.8046 51.2371 25.6677C49.9439 26.5309 48.936 27.7578 48.3408 29.1932C47.7456 30.6287 47.5898 32.2082 47.8933 33.7321C48.1967 35.2559 48.9457 36.6557 50.0455 37.7543C51.1452 38.853 52.5464 39.6012 54.0718 39.9043C55.5973 40.2074 57.1784 40.0518 58.6154 39.4573C60.0523 38.8626 61.2805 37.8557 62.1445 36.5639C63.0086 35.272 63.4698 33.7533 63.4698 32.1995C63.4659 30.1173 62.6362 28.1213 61.1623 26.6489C59.6884 25.1765 57.6904 24.3476 55.606 24.3438ZM55.606 37.9944C52.514 37.9944 49.999 35.3827 49.999 32.1717C49.999 28.9606 52.5092 26.3453 55.606 26.3453C58.7028 26.3453 61.2118 28.957 61.2118 32.1668C61.2118 35.3767 58.6919 37.9944 55.606 37.9944Z" fill="white"></path><path d="M79.1303 18.0321C79.1303 20.5882 80.4344 22.4068 83.1652 22.4068C84.936 22.4068 86.2899 21.6197 87.1261 20.3182V22.0387H89.1187V10.8799H86.9092V17.6883C86.588 19.0201 85.4814 20.392 83.6609 20.392C82.0622 20.392 81.3483 19.3834 81.3483 17.486V10.875H77.6562V13.0291H79.1303V18.0321Z" fill="white"></path><path d="M96.8422 10.6094C95.4643 10.6094 94.2592 11.2487 93.5455 12.4256V10.9012H91.4062V22.0588H93.6193V15.3994C94.1116 13.6049 95.0737 12.5963 96.3742 12.5963C97.2607 12.5963 97.8502 12.9595 98.2444 13.9972H100.459C100.115 11.8589 98.8843 10.6094 96.8422 10.6094Z" fill="white"></path><path d="M71.0013 22.4069C72.1701 22.4072 73.3126 22.0611 74.2845 21.4127C75.2564 20.7641 76.0139 19.8423 76.4613 18.7637C76.9087 17.6851 77.0258 16.4981 76.7978 15.353C76.5699 14.2079 76.0071 13.156 75.1807 12.3304C74.3542 11.5048 73.3013 10.9426 72.155 10.7149C71.0086 10.4872 69.8205 10.6042 68.7408 11.0511C67.6611 11.498 66.7382 12.2548 66.0891 13.2256C65.4399 14.1966 65.0936 15.3379 65.0938 16.5054C65.0957 18.0701 65.7187 19.57 66.8262 20.6763C67.9336 21.7827 69.4352 22.405 71.0013 22.4069ZM71.0013 12.5994C73.0921 12.5994 74.7914 14.3478 74.7914 16.497C74.7914 18.6462 73.0946 20.3958 71.0013 20.3958C68.9081 20.3958 67.2113 18.6473 67.2113 16.497C67.2113 14.3466 68.9117 12.603 71.0013 12.603V12.5994Z" fill="white"></path><path d="M75.262 32.7106C75.262 30.1546 73.9578 28.3359 71.2271 28.3359C69.4563 28.3359 68.1024 29.1229 67.2661 30.4246V28.704H65.2734V39.8628H67.4915V33.0545C67.8115 31.7225 68.9181 30.3507 70.7386 30.3507C72.3385 30.3507 73.0512 31.3593 73.0512 33.2566V39.8676H76.7444V37.7087H75.2657L75.262 32.7106Z" fill="white"></path><path d="M64.1341 8.91195V6.74219H62.6542H60.3174H58.8338V8.91195H60.3174V13.2067H50.9434V8.91195H52.4221V6.74219H50.9434H48.5568H47.0781V8.91195H48.5568V19.8842H47.0781V22.0552H48.5568H50.9434H52.4221V19.8842H50.9434V15.3692H60.3174V19.8842H58.8338V22.0552H60.3174H62.6542H64.1341V19.8842H62.6542V8.91195H64.1341Z" fill="white"></path><path d="M40.4486 17.7448L33.9193 23.3811L39.6294 32.1679L34.6841 39.6023L26.344 32.9428L19.8922 44.5303L9.70122 40.2319L14.2744 26.5655L0.578125 22.1848L3.07738 10.4933L16.5155 12.3095L16.2997 0.4375L25.3828 1.0199L28.6069 11.8348L36.8828 9.76077L40.4486 17.7448ZM20.5443 12.1751C20.771 12.1673 20.9928 12.1077 21.1928 12.0007C21.3812 11.9004 21.5444 11.7589 21.6703 11.5866C21.7994 11.4099 21.8902 11.2082 21.937 10.9946C21.9878 10.7609 21.9936 10.5197 21.9539 10.2838C21.9129 10.0366 21.8287 9.79857 21.7054 9.58032C21.5854 9.36655 21.4315 9.17356 21.2498 9.00881C21.0714 8.84667 20.8664 8.71642 20.6437 8.62377C20.4237 8.53182 20.1877 8.48449 19.9492 8.48452C19.7225 8.48532 19.499 8.53661 19.2947 8.63467C19.1008 8.72955 18.931 8.86697 18.7977 9.03665C18.6611 9.2133 18.5633 9.41668 18.5105 9.6336C18.4547 9.87183 18.4464 10.1187 18.4862 10.3601C18.5278 10.6156 18.6148 10.8617 18.7432 11.0866C18.8681 11.3061 19.0291 11.503 19.2195 11.669C19.4035 11.8312 19.6149 11.9595 19.8438 12.0479C20.067 12.1357 20.3057 12.1768 20.5455 12.169L20.5443 12.1751ZM25.1513 11.9826C25.3543 11.9766 25.5529 11.9228 25.7311 11.8256C25.9092 11.7284 26.062 11.5905 26.1767 11.4232C26.2953 11.2528 26.3779 11.0599 26.4192 10.8565C26.4631 10.6316 26.4652 10.4005 26.4252 10.1749C26.3438 9.70578 26.1109 9.27627 25.7622 8.9519C25.5974 8.79952 25.4076 8.67664 25.201 8.58865C24.9996 8.50079 24.7821 8.45545 24.5623 8.45547C24.3542 8.45523 24.149 8.50419 23.9635 8.59834C23.7853 8.68995 23.631 8.82178 23.5126 8.98337C23.3876 9.15349 23.3004 9.34835 23.2569 9.55485C23.2085 9.78525 23.204 10.0227 23.2435 10.2548C23.2836 10.4987 23.3656 10.7338 23.486 10.9498C23.6029 11.1584 23.7527 11.3468 23.9296 11.5079C24.0996 11.6618 24.2953 11.7848 24.5078 11.8712C24.7126 11.9543 24.9327 11.9936 25.1538 11.9862" fill="white"></path></g></g></g><defs><clipPath id="clip0_940_6054"><rect width="99.9" height="44.1" fill="white" transform="translate(0.546875 0.453125)"></rect></clipPath></defs></svg>