<svg width="143" height="32" viewBox="0 0 143 32" fill="white" xmlns="http://www.w3.org/2000/svg" class="h-8 w-auto"><path d="M45.2578 27.6959H35.6292V24.4061H38.3172V3.38354H35.4688V0.09375H42.5698V24.4061H45.2578V27.6959ZM63.3644 22.1995C63.2039 23.7776 62.4283 25.155 61.0375 26.3318C59.6467 27.5087 57.7344 28.0971 55.3005 28.0971C52.6794 28.0971 50.5263 27.3348 48.8413 25.8103C47.1563 24.259 46.3138 21.9856 46.3138 18.99C46.3138 16.2351 47.0761 13.9349 48.6006 12.0895C50.1518 10.244 52.3049 9.32121 55.0597 9.32121C57.5471 9.32121 59.513 10.0701 60.9573 11.5679C62.4283 13.0389 63.1772 14.9112 63.2039 17.1846C63.2039 17.9335 63.1237 18.7359 62.9632 19.5918H50.8071C51.0478 22.9618 52.6526 24.6468 55.6214 24.6468C57.0122 24.6468 58.0018 24.3125 58.5902 23.6438C59.2054 22.9752 59.6066 22.2664 59.7938 21.5175L63.3644 22.1995ZM58.7908 16.9439C58.8978 15.874 58.6437 14.8711 58.0286 13.9349C57.4401 12.9721 56.4372 12.4906 55.0196 12.4906C53.7358 12.4906 52.7596 12.9186 52.0909 13.7745C51.4223 14.6303 51.0077 15.6868 50.8472 16.9439H58.7908ZM84.1676 27.6959H75.542V24.4061H77.2671L74.0174 20.7151L70.8079 24.4061H72.3324V27.6959H64.2685V24.4061H66.7559L71.9714 18.7894L66.4349 12.9721H64.3889V9.68229H73.1749V12.9721H71.4899L74.4989 16.5828L77.7084 12.9721H76.1438V9.68229H83.7263V12.9721H81.8407L76.6653 18.3882L82.2419 24.4061H84.1676V27.6959ZM87.7511 5.95118V1.21709H92.124V5.95118H87.7511ZM94.9324 27.6959H85.3038V24.4061H87.9918V13.0122H85.1433V9.68229H92.2444V24.4061H94.9324V27.6959ZM112.745 21.2367C112.558 22.8415 111.849 24.3927 110.619 25.8905C109.388 27.3616 107.409 28.0971 104.681 28.0971C102.113 28.0971 100.014 27.3215 98.3824 25.7702C96.7776 24.2189 95.9752 21.9588 95.9752 18.99C95.9752 16.0746 96.8044 13.7343 98.4626 11.9691C100.148 10.2038 102.341 9.32121 105.042 9.32121C106.112 9.32121 107.182 9.45494 108.252 9.72241C109.322 9.98987 110.378 10.4312 111.421 11.0463L112.143 16.1014L108.693 16.4625L108.091 13.4936C107.117 13.0158 106.047 12.7687 104.962 12.7715C101.966 12.7715 100.469 14.7775 100.469 18.7894C100.469 22.6943 102.006 24.6468 105.082 24.6468C107.329 24.6468 108.68 23.2828 109.134 20.5546L112.745 21.2367ZM115.746 11.0062C117.083 10.3643 118.273 9.923 119.316 9.68229C120.36 9.44157 121.563 9.32121 122.927 9.32121C124.933 9.32121 126.578 9.82939 127.862 10.8458C129.172 11.8621 129.828 13.3866 129.828 15.4194V23.5235C129.828 24.5933 130.269 25.1283 131.152 25.1283C131.392 25.1283 131.7 25.0748 132.074 24.9678L132.114 27.3348C131.232 27.843 130.269 28.0971 129.226 28.0971C126.952 28.0971 125.722 26.9069 125.535 24.5265V24.4462C125 25.3823 124.238 26.2249 123.248 26.9738C122.285 27.7226 121.082 28.0971 119.637 28.0971C118.38 28.0971 117.137 27.7226 115.906 26.9738C114.703 26.1981 114.101 24.8608 114.101 22.9618C114.101 20.7419 114.984 19.2842 116.749 18.5888C118.514 17.8666 120.426 17.5056 122.486 17.5056C122.994 17.5056 123.516 17.5189 124.05 17.5457C124.585 17.5724 125.08 17.6126 125.535 17.666V16.6631C125.535 15.5932 125.348 14.6303 124.973 13.7745C124.599 12.9186 123.663 12.4906 122.165 12.4906C121.603 12.4906 121.068 12.5308 120.56 12.611C120.079 12.6912 119.611 12.8517 119.156 13.0924L118.434 15.8607L114.984 15.4996L115.746 11.0062ZM125.535 20.5546V19.9127C125.067 19.8577 124.599 19.8042 124.131 19.7523C123.638 19.6981 123.142 19.6714 122.646 19.672C121.576 19.672 120.614 19.8592 119.758 20.2337C118.929 20.6081 118.514 21.357 118.514 22.4804C118.514 24.1119 119.383 24.9277 121.122 24.9277C122.138 24.9277 123.101 24.5666 124.01 23.8444C124.92 23.0955 125.428 21.9989 125.535 20.5546ZM142.348 27.6959H132.719V24.4061H135.407V3.38354H132.559V0.09375H139.66V24.4061H142.348V27.6959Z" fill="currentFill"></path><path d="M87.6423 1.19531H92.1796V5.97143H87.6423V1.19531ZM4.77734 13.6132H10.031V16.0013H4.77734V13.6132Z" fill="currentFill" fill-opacity="0.2"></path><path d="M11.2266 13.6094H16.4802V15.9974H11.2266V13.6094Z" fill="currentFill"></path><path d="M17.6728 13.6094H19.822V15.9974H17.6728V13.6094ZM4.77734 17.4303H13.3743V19.8183H4.77734V17.4303ZM14.5683 17.4303H19.822V19.8183H14.5683V17.4303Z" fill="currentFill" fill-opacity="0.2"></path><path d="M4.77734 21.2578H10.031V23.6459H4.77734V21.2578Z" fill="currentFill"></path><path d="M11.2266 21.2578H16.4802V23.6459H11.2266V21.2578Z" fill="currentFill" fill-opacity="0.2"></path><path d="M17.6719 21.2578H19.8211V23.6459H17.6719V21.2578Z" fill="currentFill"></path><path d="M0 8.83594H19.8207V11.224H2.38804V26.03H19.8207V28.418H0V8.83594ZM28.1789 8.83594H24.5968V11.224H25.7908V26.03H24.5968V28.418H28.1789V8.83594Z" fill="currentFill"></path><path d="M18.6289 7.64587V5.25781H26.0318V7.64587H23.405V29.616H26.0318V32.0041H18.6289V29.616H21.0169V7.64587H18.6289Z" fill="currentFill"></path></svg>