<svg width="150" height="40" viewBox="0 0 150 40" fill="none" xmlns="http://www.w3.org/2000/svg" class="max-h-full w-auto scale-75 fill-current lg:scale-95"><g clip-path="url(#clip0_800_5945)"><path fill-rule="evenodd" clip-rule="evenodd" d="M60.3896 29.7807C62.0342 29.7807 63.4736 29.5071 64.5356 29.1309V25.2009C63.2336 24.5859 61.6916 24.3129 60.0464 24.3129C57.8192 24.3129 56.243 25.0305 56.243 26.8755C56.243 28.6185 57.614 29.7807 60.3896 29.7807ZM67.2434 21.4755V30.6693C65.735 31.4895 62.8904 32.2413 60.3554 32.2413C55.4204 32.2413 53.3984 29.9853 53.3984 27.0123C53.3984 23.7315 56.2772 21.8859 60.0464 21.8859C61.8284 21.8859 63.3704 22.2279 64.5356 22.7061V21.4761C64.5356 19.0491 62.9594 17.7507 60.1154 17.7507C58.1618 17.7507 56.5172 18.4689 55.523 19.2207C55.1593 19.0465 54.8423 18.7883 54.5981 18.4674C54.3538 18.1465 54.1894 17.7721 54.1184 17.3751C55.1462 16.3491 57.5108 15.1875 60.2522 15.1875C64.1246 15.1875 67.2434 16.9647 67.2434 21.4755ZM84.2666 27.7635V18.7755C83.4446 18.1263 82.1078 17.7159 80.6342 17.7159C77.207 17.7159 74.8424 20.0739 74.8424 23.4579C74.8424 26.9097 77.207 28.9599 80.6342 28.9599C82.4504 28.9599 83.444 28.3785 84.2666 27.7635ZM87.0422 17.2719V31.3527C87.0422 35.3847 83.924 38.4609 79.3322 38.4609C76.4876 38.4609 73.952 37.5729 72.2726 35.6589C72.5126 34.9749 73.1294 34.1547 74.0546 33.7791C75.1166 35.0091 76.7276 36.0003 79.3316 36.0003C82.7588 36.0003 84.2666 33.9495 84.2666 31.3527V30.4299C83.1698 30.9765 81.902 31.3869 80.3942 31.3869C75.8024 31.3869 71.9984 28.3791 71.9984 23.4579C71.9984 18.6735 75.6308 15.1875 80.6342 15.1875C82.9982 15.1875 85.3634 15.9735 87.0422 17.2719ZM92.9804 31.9827V15.8517C93.4604 15.7497 93.9404 15.7149 94.3856 15.7149C94.8314 15.7149 95.3114 15.7491 95.7566 15.8517V31.9827C95.3114 32.0847 94.8314 32.1195 94.3856 32.1195C93.9404 32.1195 93.4598 32.0853 92.9804 31.9827ZM92.3984 11.1357C92.3984 10.0419 93.2552 9.1875 94.3856 9.1875C95.4476 9.1875 96.305 10.0419 96.305 11.1357C96.305 12.2289 95.4482 13.0833 94.3856 13.0833C93.2894 13.0833 92.3984 12.2289 92.3984 11.1357ZM101.998 31.7775V9.3249C102.449 9.23025 102.908 9.18438 103.369 9.1881C103.815 9.1881 104.329 9.2223 104.774 9.3249V31.7787C104.328 31.8807 103.815 31.9149 103.369 31.9149C102.908 31.9187 102.449 31.873 101.998 31.7787M110.98 31.9827V15.8517C111.46 15.7497 111.94 15.7149 112.386 15.7149C112.831 15.7149 113.311 15.7491 113.757 15.8517V31.9827C113.311 32.0847 112.831 32.1195 112.386 32.1195C111.94 32.1195 111.46 32.0853 110.98 31.9827ZM110.398 11.1357C110.398 10.0419 111.255 9.1875 112.386 9.1875C113.448 9.1875 114.305 10.0419 114.305 11.1357C114.305 12.2289 113.448 13.0833 112.386 13.0833C111.289 13.0833 110.398 12.2289 110.398 11.1357ZM131.254 30.7599C130.398 31.5459 128.719 32.4687 126.731 32.4687C123.476 32.4687 121.111 30.9309 121.111 27.0687V18.2859H118.335C118.239 17.9177 118.193 17.5383 118.198 17.1579C118.198 16.7823 118.233 16.4403 118.335 16.0647H121.111V11.7243C121.557 11.6217 122.002 11.5875 122.482 11.5875C122.927 11.5875 123.373 11.6217 123.819 11.7243V16.0647H130.227C130.329 16.4403 130.363 16.7823 130.363 17.1579C130.363 17.5683 130.329 17.8755 130.227 18.2859H123.819V26.5215C123.819 29.4267 125.189 30.0417 126.937 30.0417C128.239 30.0417 129.507 29.2557 130.021 28.8117C130.706 29.2899 131.118 30.0423 131.254 30.7599ZM148.996 16.1295C146.323 26.3475 143.274 32.4651 137.277 38.9931C136.317 38.8221 135.631 38.0697 135.323 37.3185C137.002 35.4729 138.544 33.5589 139.675 31.6785C136.557 26.5185 134.604 21.2895 133.198 16.0263C133.747 15.8559 134.295 15.7875 134.912 15.7875C135.289 15.7875 135.734 15.8217 136.146 15.8895C137.345 20.4693 138.75 24.1947 141.081 28.8429L141.354 29.3553C141.423 29.1843 141.526 29.0475 141.594 28.8765C143.821 24.6045 145.09 20.4351 146.186 15.8901C146.559 15.8236 146.938 15.7893 147.317 15.7875C147.865 15.7875 148.482 15.9243 148.996 16.1295Z" fill="white"></path><path fill-rule="evenodd" clip-rule="evenodd" d="M26.4341 32.87H11.0471L22.6451 12.836L34.2431 32.87L37.6259 38.8388H44.6099L22.6445 0.898438L0.679688 38.8388H29.1299L26.4341 32.87Z" fill="white"></path></g><defs><clipPath id="clip0_800_5945"><rect width="148.8" height="38.4" fill="white" transform="translate(0.59375 0.796875)"></rect></clipPath></defs></svg>