<svg width="107" height="32" viewBox="0 0 107 32" fill="none" xmlns="http://www.w3.org/2000/svg" class="max-h-full w-auto scale-75 fill-current lg:scale-95"><g clip-path="url(#clip0_1_317)"><path fill-rule="evenodd" clip-rule="evenodd" d="M3.14236 -7.62939e-06C1.40715 -7.62939e-06 0.000488281 1.40665 0.000488281 3.14187V28.2768C0.000488281 30.0121 1.40715 31.4187 3.14236 31.4187H28.2773C30.0125 31.4187 31.4192 30.0121 31.4192 28.2768V3.14187C31.4192 1.40665 30.0125 -7.62939e-06 28.2773 -7.62939e-06H3.14236ZM10.417 18.0083H12.9321C14.8686 18.0083 16.1678 16.019 15.3903 14.2446L12.7012 8.10649C12.1424 6.83092 12.7717 5.34775 14.077 4.86403C15.2719 4.42124 16.6052 4.98142 17.1259 6.14502L24.6756 23.0152C25.4223 24.6839 24.2021 26.5684 22.3748 26.5684C21.3751 26.5684 20.4699 25.9773 20.0674 25.0619L19.5899 23.9762C19.1613 23.0014 18.1975 22.3723 17.1331 22.3723H14.0936C13.0292 22.3723 12.0655 23.0014 11.6368 23.9762L11.1664 25.0459C10.7595 25.9711 9.84483 26.5684 8.83462 26.5684C7.00305 26.5684 5.76991 24.6924 6.49537 23.0097L7.95245 19.63C8.37685 18.6457 9.34555 18.0083 10.417 18.0083ZM21.1466 8.6002L22.4751 4.97498C22.5763 4.69868 22.9587 4.6772 23.0902 4.94042L23.7016 6.16403C23.7326 6.22589 23.7818 6.27668 23.8427 6.30947L25.2732 7.08018C25.5279 7.21741 25.5013 7.59127 25.2296 7.69092L21.5771 9.03088C21.3088 9.12935 21.0482 8.86859 21.1466 8.6002ZM7.3685 13.4084L10.9917 14.7376C11.26 14.836 11.5206 14.5753 11.4222 14.3069L10.0829 10.6523C9.98334 10.3805 9.60967 10.3539 9.47257 10.6087L8.70227 12.04C8.66945 12.1009 8.61874 12.1502 8.55687 12.1812L7.33396 12.7929C7.07089 12.9245 7.09236 13.3071 7.3685 13.4084Z" fill="white"></path><path fill-rule="evenodd" clip-rule="evenodd" d="M42.1025 26.7059H39.1177L45.7313 6.40331C45.8156 6.14463 46.0567 5.96956 46.3288 5.96956H50.7577C51.0297 5.96956 51.2709 6.14463 51.3551 6.40331L57.9689 26.7059H54.9841L52.9555 20.4222H44.131L42.1025 26.7059ZM44.9932 17.7516L47.7957 9.07037C48.03 8.34487 49.0565 8.34487 49.2907 9.07037L52.0933 17.7516H44.9932Z" fill="white"></path><path d="M60.4805 11.3108V26.7059H63.1511V11.9391C63.1511 11.5921 62.8698 11.3108 62.5227 11.3108H60.4805Z" fill="white"></path><path d="M106.038 5.96956H103.996V26.7059H106.667V6.59793C106.667 6.2509 106.385 5.96956 106.038 5.96956Z" fill="white"></path><path d="M68.1794 13.5101C68.1794 14.7247 67.1947 15.7094 65.9801 15.7094C64.7654 15.7094 63.7808 14.7247 63.7808 13.5101C63.7808 12.2954 64.7654 11.3108 65.9801 11.3108C67.1947 11.3108 68.1794 12.2954 68.1794 13.5101Z" fill="white"></path><path d="M77.8849 11.3693C81.8043 11.7423 83.3107 15.1514 83.5741 16.8093H80.7297C80.4135 14.7887 78.0429 12.9236 75.0401 14.0116C71.7241 15.2131 71.8414 18.7909 72.0373 20.0733C72.1954 21.1079 72.6379 23.0947 75.0402 24.0077C78.043 25.0957 80.4136 23.2305 80.7297 21.21H83.5741C83.3107 22.8679 81.8044 26.2769 77.8849 26.65C73.6177 27.0561 71.8793 25.1491 71.0891 24.2165C70.419 23.4705 69.8247 22.1959 69.6666 21.4188C68.921 17.8729 70.1408 14.8908 71.0891 13.8028C71.8266 12.7666 73.6177 10.9632 77.8849 11.3693Z" fill="white"></path><path fill-rule="evenodd" clip-rule="evenodd" d="M87.7831 13.8028C86.81 14.8908 85.5587 17.8729 86.3234 21.4188C86.4859 22.1959 87.0955 23.4705 87.7831 24.2165C88.5199 25.0645 90.0617 26.7182 93.6276 26.7059C97.1927 26.7182 98.7345 25.0645 99.4721 24.2165C100.16 23.4705 100.769 22.1959 100.931 21.4188C101.697 17.8729 100.444 14.8908 99.4721 13.8028C98.7837 12.8605 97.2018 11.2836 93.6276 11.3111C90.0534 11.2836 88.4715 12.8605 87.7831 13.8028ZM88.7562 20.0733C88.5552 18.7909 88.4346 15.2131 91.8372 14.0116C92.4649 13.7899 93.0655 13.6908 93.6276 13.6907C94.1888 13.6908 94.7903 13.7899 95.418 14.0116C98.8206 15.2131 98.7 18.7909 98.499 20.0733C98.3365 21.1079 97.8828 23.0947 95.418 24.0077C94.7903 24.2294 94.1888 24.3285 93.6276 24.3286C93.0655 24.3285 92.4649 24.2294 91.8372 24.0077C89.3724 23.0947 88.9179 21.1079 88.7562 20.0733Z" fill="white"></path></g><defs><clipPath id="clip0_1_317"><rect width="106.667" height="32" fill="white"></rect></clipPath></defs></svg>